<svg width="12" height="15" viewBox="0 0 12 15" fill="none" xmlns="http://www.w3.org/2000/svg">
  <path
    d="M11.358 0.461426H2.98303C2.91428 0.461426 2.85803 0.517676 2.85803 0.586426V1.46143C2.85803 1.53018 2.91428 1.58643 2.98303 1.58643H10.733V12.3364C10.733 12.4052 10.7893 12.4614 10.858 12.4614H11.733C11.8018 12.4614 11.858 12.4052 11.858 12.3364V0.961426C11.858 0.684863 11.6346 0.461426 11.358 0.461426ZM9.35803 2.46143H1.35803C1.08147 2.46143 0.858032 2.68486 0.858032 2.96143V11.2536C0.858032 11.3864 0.911157 11.513 1.00491 11.6067L3.71272 14.3146C3.7471 14.3489 3.78616 14.3771 3.82835 14.4005V14.4302H3.89397C3.94866 14.4505 4.00647 14.4614 4.06584 14.4614H9.35803C9.6346 14.4614 9.85803 14.238 9.85803 13.9614V2.96143C9.85803 2.68486 9.6346 2.46143 9.35803 2.46143ZM3.82678 12.8396L2.48147 11.4927H3.82678V12.8396ZM8.73303 13.3364H4.82678V11.1177C4.82678 10.7724 4.5471 10.4927 4.20178 10.4927H1.98303V3.58643H8.73303V13.3364Z"
    fill="black"
    fill-opacity="0.85" />
</svg>
