<svg width="21" height="20" viewBox="0 0 21 20" fill="none" xmlns="http://www.w3.org/2000/svg">
  <path
    d="M10.4634 0C4.94106 0 0.463379 4.47768 0.463379 10C0.463379 15.5223 4.94106 20 10.4634 20C15.9857 20 20.4634 15.5223 20.4634 10C20.4634 4.47768 15.9857 0 10.4634 0ZM10.4634 18.3036C5.87856 18.3036 2.15981 14.5848 2.15981 10C2.15981 5.41518 5.87856 1.69643 10.4634 1.69643C15.0482 1.69643 18.767 5.41518 18.767 10C18.767 14.5848 15.0482 18.3036 10.4634 18.3036Z"
    fill="#1890FF"
    fill-opacity="0.85" />
  <path
    d="M12.9541 5.63993C12.2845 5.05287 11.4005 4.73145 10.463 4.73145C9.52553 4.73145 8.6416 5.05511 7.97196 5.63993C7.27553 6.2493 6.8916 7.0685 6.8916 7.94573V8.11538C6.8916 8.21359 6.97196 8.29395 7.07017 8.29395H8.1416C8.23982 8.29395 8.32017 8.21359 8.32017 8.11538V7.94573C8.32017 6.96136 9.28223 6.16002 10.463 6.16002C11.6438 6.16002 12.6059 6.96136 12.6059 7.94573C12.6059 8.63993 12.1148 9.27609 11.3537 9.5685C10.8804 9.7493 10.4787 10.0663 10.1907 10.4814C9.8983 10.9056 9.74651 11.4145 9.74651 11.9301V12.41C9.74651 12.5082 9.82687 12.5886 9.92509 12.5886H10.9965C11.0947 12.5886 11.1751 12.5082 11.1751 12.41V11.9033C11.1762 11.6866 11.2427 11.4753 11.3657 11.2969C11.4887 11.1185 11.6627 10.9814 11.8648 10.9033C13.1818 10.3966 14.0322 9.23591 14.0322 7.94573C14.0345 7.0685 13.6505 6.2493 12.9541 5.63993ZM9.57017 14.91C9.57017 15.1468 9.66424 15.3739 9.83169 15.5414C9.99913 15.7088 10.2262 15.8029 10.463 15.8029C10.6998 15.8029 10.9269 15.7088 11.0944 15.5414C11.2618 15.3739 11.3559 15.1468 11.3559 14.91C11.3559 14.6732 11.2618 14.4461 11.0944 14.2787C10.9269 14.1112 10.6998 14.0172 10.463 14.0172C10.2262 14.0172 9.99913 14.1112 9.83169 14.2787C9.66424 14.4461 9.57017 14.6732 9.57017 14.91Z"
    fill="#1890FF"
    fill-opacity="0.85" />
</svg>
